Coordinates
version=1
nRows=12
nColumns=34
inDegrees=no

Units are S.I. units (second, meters, Newtons, ...)
If the header above contains a line with 'inDegrees', this indicates whether rotational values are in degrees (yes) or radians (no).

endheader
time	pelvis_tilt	pelvis_list	pelvis_rotation	pelvis_tx	pelvis_ty	pelvis_tz	hip_flexion_r	hip_adduction_r	hip_rotation_r	knee_angle_r	ankle_angle_r	subtalar_angle_r	mtp_angle_r	hip_flexion_l	hip_adduction_l	hip_rotation_l	knee_angle_l	ankle_angle_l	subtalar_angle_l	mtp_angle_l	lumbar_extension	lumbar_bending	lumbar_rotation	arm_flex_r	arm_add_r	arm_rot_r	elbow_flex_r	pro_sup_r	arm_flex_l	arm_add_l	arm_rot_l	elbow_flex_l	pro_sup_l
0.41	0.195073	-0.0605699	0.0252395	0.392578	0.914963	-0.23743	-0.33431	0.131005	-0.179243	0.174098	0.355716	0.250571	-0.0835766	0.351825	-0.106625	-0.0835504	0.464312	0.152569	-0.079874	-0.0837568	-0.485333	0.0293228	0.104566	0.344732	-0.25513	0.202701	0.69904	1.21956	0.0341086	-0.212679	0.16197	0.260062	1.07539
0.42	0.196736	-0.054424	0.0212203	0.406611	0.913002	-0.238092	-0.351634	0.11798	-0.201387	0.180066	0.373848	0.289008	-0.083574	0.331369	-0.0928887	-0.083662	0.371448	0.16367	-0.0726452	-0.0837541	-0.487755	0.0205712	0.109778	0.35036	-0.258844	0.204891	0.709899	1.22829	0.0247743	-0.212477	0.157126	0.247291	1.07788
0.43	0.198627	-0.0480948	0.0169208	0.420861	0.910937	-0.238839	-0.368238	0.103858	-0.224537	0.188053	0.391292	0.327927	-0.0835713	0.308823	-0.0785127	-0.0780993	0.28054	0.173154	-0.0666037	-0.0837513	-0.490107	0.0117028	0.114862	0.355145	-0.262301	0.206629	0.719472	1.23693	0.016378	-0.211895	0.151171	0.233978	1.08094
0.44	0.200734	-0.0417988	0.012194	0.435337	0.908793	-0.239656	-0.384231	0.0889986	-0.247309	0.197827	0.407446	0.365705	-0.0835686	0.285453	-0.0641125	-0.0668591	0.195181	0.180896	-0.0626558	-0.0837485	-0.492318	0.00281571	0.120004	0.358963	-0.2654	0.207878	0.727749	1.24504	0.00887508	-0.211035	0.1442	0.220269	1.08439
0.45	0.203036	-0.0357184	0.00692118	0.450044	0.9066	-0.240524	-0.399777	0.0737697	-0.268262	0.209027	0.42171	0.400646	-0.0835659	0.262636	-0.0503164	-0.0510125	0.119058	0.187053	-0.061077	-0.0837458	-0.494309	-0.00604116	0.125345	0.361683	-0.268015	0.208585	0.734721	1.25226	0.0022039	-0.210025	0.136372	0.206377	1.08799
0.46	0.205514	-0.0299286	0.00103449	0.464987	0.904389	-0.241415	-0.415059	0.0584496	-0.286171	0.221236	0.433559	0.431266	-0.0835632	0.241632	-0.0375825	-0.0325579	0.0553674	0.191899	-0.0615247	-0.083743	-0.496	-0.014914	0.130932	0.363169	-0.269994	0.208676	0.740373	1.25838	-0.00370646	-0.209014	0.127875	0.192565	1.09157
0.47	0.208158	-0.0243438	-0.00547364	0.48017	0.902191	-0.242294	-0.430245	0.0431386	-0.300241	0.234064	0.442597	0.456525	-0.0835606	0.223321	-0.0260477	-0.0139591	0.00620103	0.195496	-0.0633718	-0.0837403	-0.497317	-0.0239736	0.136683	0.363298	-0.271169	0.208057	0.744678	1.26334	-0.00893412	-0.208147	0.118881	0.179122	1.09507
0.48	0.210971	-0.0187238	-0.0125486	0.495605	0.900024	-0.243133	-0.445445	0.027738	-0.310197	0.247235	0.448542	0.475892	-0.0835579	0.208025	-0.0154928	0.00244778	-0.0278255	0.197402	-0.0661592	-0.0837375	-0.498201	-0.0335006	0.142381	0.361962	-0.271378	0.206638	0.747607	1.26727	-0.0135655	-0.207548	0.109518	0.166332	1.0986
0.49	0.213952	-0.0127463	-0.02007	0.511299	0.897973	-0.24393	-0.46066	0.0120333	-0.31617	0.260656	0.451141	0.489168	-0.0835552	0.195613	-0.00545341	0.0148172	-0.0473688	0.19667	-0.0697416	-0.0837348	-0.498601	-0.0438086	0.147706	0.35909	-0.270486	0.204359	0.749123	1.27043	-0.0176873	-0.207301	0.0998793	0.154464	1.10244
0.5	0.217096	-0.00609504	-0.0278423	0.527251	0.896071	-0.244693	-0.475744	-0.00419654	-0.318527	0.27448	0.450063	0.496247	-0.0835525	0.1858	0.00460868	0.0219439	-0.053812	0.192121	-0.0742243	-0.083732	-0.498508	-0.05515	0.152274	0.354661	-0.268403	0.201211	0.749185	1.27308	-0.0213682	-0.207438	0.0900614	0.143748	1.10695
0.51	0.220386	0.00145281	-0.0355998	0.543433	0.894345	-0.245437	-0.490354	-0.0210655	-0.317709	0.289151	0.444796	0.496928	-0.0835499	0.178417	0.0151229	0.0232555	-0.0487232	0.182751	-0.0797633	-0.0837293	-0.49796	-0.0676288	0.155689	0.348731	-0.265096	0.197249	0.747747	1.27547	-0.024639	-0.207939	0.08019	0.134375	1.11241
0.52	0.223775	0.00995416	-0.0430281	0.559792	0.892808	-0.246184	-0.503918	-0.0385068	-0.314116	0.305414	0.434588	0.490833	-0.0835472	0.173527	0.026275	0.0187186	-0.0335177	0.168137	-0.0863376	-0.0837265	-0.49703	-0.0811489	0.157595	0.341434	-0.260586	0.192586	0.744761	1.27776	-0.0274814	-0.208737	0.0704484	0.126493	1.11902
